<?xml version="1.0" encoding="UTF-8" standalone="no"?>
<!-- Created with Inkscape (http://www.inkscape.org/) -->

<svg
   xmlns:dc="http://purl.org/dc/elements/1.1/"
   xmlns:cc="http://creativecommons.org/ns#"
   xmlns:rdf="http://www.w3.org/1999/02/22-rdf-syntax-ns#"
   xmlns:svg="http://www.w3.org/2000/svg"
   xmlns="http://www.w3.org/2000/svg"
   xmlns:sodipodi="http://sodipodi.sourceforge.net/DTD/sodipodi-0.dtd"
   xmlns:inkscape="http://www.inkscape.org/namespaces/inkscape"
   version="1.1"
   id="svg2"
   width="813"
   height="492"
   viewBox="0 0 813 492"
   sodipodi:docname="no_wifi.svg"
   inkscape:version="0.92.2 2405546, 2018-03-11">
  <metadata
     id="metadata8">
    <rdf:RDF>
      <cc:Work
         rdf:about="">
        <dc:format>image/svg+xml</dc:format>
        <dc:type
           rdf:resource="http://purl.org/dc/dcmitype/StillImage" />
        <dc:title></dc:title>
      </cc:Work>
    </rdf:RDF>
  </metadata>
  <defs
     id="defs6" />
  <sodipodi:namedview
     pagecolor="#ffffff"
     bordercolor="#666666"
     borderopacity="1"
     objecttolerance="10"
     gridtolerance="10"
     guidetolerance="10"
     inkscape:pageopacity="0"
     inkscape:pageshadow="2"
     inkscape:window-width="1920"
     inkscape:window-height="1025"
     id="namedview4"
     showgrid="false"
     fit-margin-top="0"
     fit-margin-left="0"
     fit-margin-right="0"
     fit-margin-bottom="0"
     inkscape:zoom="0.77736777"
     inkscape:cx="486.45374"
     inkscape:cy="351.75504"
     inkscape:window-x="0"
     inkscape:window-y="27"
     inkscape:window-maximized="1"
     inkscape:current-layer="svg2" />
  <rect
     style="fill:#008000;fill-opacity:1;stroke:none;stroke-width:15.55611038;stroke-miterlimit:4;stroke-dasharray:none;stroke-opacity:1"
     id="rect817"
     width="819.43195"
     height="517.72784"
     x="-2.6489257e-08"
     y="-4.0441896e-07" />
  <g
     id="g825"
     transform="matrix(0.55699946,0,0,0.55699946,128.01223,-32.49973)">
    <path
       id="path821"
       d="m 699.5,686.4 c -6.7,0 -13.3,-2.9 -17.9,-8.4 -45.4,-55.1 -112.4,-86.8 -183.8,-86.8 -69.1,0 -134.7,30 -180,82.2 -8.4,9.7 -23,10.7 -32.7,2.3 -9.7,-8.4 -10.7,-23 -2.3,-32.7 54.1,-62.4 132.5,-98.2 215,-98.2 85.3,0 165.4,37.8 219.6,103.7 8.1,9.9 6.7,24.5 -3.1,32.6 -4.4,3.6 -9.6,5.3 -14.8,5.3 M 838,524 c 5.5,0 11,-1.9 15.5,-5.9 9.5,-8.5 10.3,-23.2 1.8,-32.7 C 764.3,383.8 634,325.6 497.8,325.6 364.2,325.6 235.6,382 145,480.3 c -8.7,9.4 -8.1,24.1 1.3,32.7 9.4,8.7 24.1,8.1 32.7,-1.3 81.9,-88.8 198,-139.8 318.7,-139.8 123.1,0 240.8,52.6 323,144.4 4.6,5.1 10.9,7.7 17.3,7.7 M 966.8,371.2 c 5.6,0 11.3,-2 15.7,-6.2 9.4,-8.7 10,-23.3 1.3,-32.7 C 858.9,197.1 681.7,119.6 497.7,119.6 c -184.1,0 -355,73.8 -481.4,207.7 -8.8,9.3 -8.3,24 1,32.8 9.3,8.8 24,8.4 32.8,-1 117.5,-124.6 276.5,-193.2 447.7,-193.2 171.1,0 335.9,72.1 452.1,197.8 4.5,5 10.7,7.5 16.9,7.5"
       inkscape:connector-curvature="0" />
    <path
       id="path823"
       d="m 576.8,880.4 c -89.2,0 -161.6,-72.3 -161.6,-161.6 0,-89.2 72.3,-161.6 161.6,-161.6 89.2,0 161.6,72.3 161.6,161.6 -0.1,89.3 -72.4,161.6 -161.6,161.6 z m 24.7,-240.2 c 0,-12.4 -12.7,-22.4 -25.1,-22.4 -12.4,0 -24.7,10 -24.7,22.4 l 6.5,93.4 c 0,12.4 5.7,22.4 18,22.4 12.4,0 18.7,-10 18.7,-22.4 z M 577.2,768 c -14,0 -25.3,11.4 -25.3,25.3 0,14 11.3,25.3 25.3,25.3 14,0 25.3,-11.3 25.3,-25.3 0,-13.9 -11.4,-25.3 -25.3,-25.3 z"
       inkscape:connector-curvature="0" />
  </g>
</svg>
