<?xml version="1.0" encoding="UTF-8" standalone="no"?>
<!-- Created with Inkscape (http://www.inkscape.org/) -->

<svg
   xmlns:dc="http://purl.org/dc/elements/1.1/"
   xmlns:cc="http://creativecommons.org/ns#"
   xmlns:rdf="http://www.w3.org/1999/02/22-rdf-syntax-ns#"
   xmlns:svg="http://www.w3.org/2000/svg"
   xmlns="http://www.w3.org/2000/svg"
   xmlns:sodipodi="http://sodipodi.sourceforge.net/DTD/sodipodi-0.dtd"
   xmlns:inkscape="http://www.inkscape.org/namespaces/inkscape"
   version="1.1"
   id="svg2"
   width="813"
   height="492"
   viewBox="0 0 813 492"
   sodipodi:docname="tanımsız_kart.svg"
   inkscape:version="0.92.2 2405546, 2018-03-11">
  <metadata
     id="metadata8">
    <rdf:RDF>
      <cc:Work
         rdf:about="">
        <dc:format>image/svg+xml</dc:format>
        <dc:type
           rdf:resource="http://purl.org/dc/dcmitype/StillImage" />
        <dc:title></dc:title>
      </cc:Work>
    </rdf:RDF>
  </metadata>
  <defs
     id="defs6" />
  <sodipodi:namedview
     pagecolor="#ffffff"
     bordercolor="#666666"
     borderopacity="1"
     objecttolerance="10"
     gridtolerance="10"
     guidetolerance="10"
     inkscape:pageopacity="0"
     inkscape:pageshadow="2"
     inkscape:window-width="1920"
     inkscape:window-height="1025"
     id="namedview4"
     showgrid="false"
     fit-margin-top="0"
     fit-margin-left="0"
     fit-margin-right="0"
     fit-margin-bottom="0"
     inkscape:zoom="1.099364"
     inkscape:cx="528.80136"
     inkscape:cy="239.61081"
     inkscape:window-x="0"
     inkscape:window-y="27"
     inkscape:window-maximized="1"
     inkscape:current-layer="svg2" />
  <rect
     style="fill:#008000;fill-opacity:1;stroke:none;stroke-width:5.4156661;stroke-miterlimit:4;stroke-dasharray:none;stroke-opacity:1"
     id="rect876"
     width="876.40698"
     height="540.85309"
     x="-41.13464"
     y="-22.942303" />
  <g
     id="g914"
     transform="translate(1149.9787,-618.76248)">
    <g
       id="g905">
      <path
         inkscape:connector-curvature="0"
         id="path836"
         d="m -719.51873,872.88511 -5.34837,-1.67424 -3.27141,2.94863 c -8.2172,7.4063 -20.47916,4.71989 -23.0999,-5.06086 -0.95725,-3.57249 -2.45077,-5.69106 -3.76414,-5.33915 -0.55251,0.14805 -2.47034,2.3114 -4.26176,4.80744 -1.79151,2.49607 -5.45497,6.3894 -8.14113,8.65188 l -4.88393,4.11363 -32.56348,8.72535 c -29.96519,8.02915 -32.73832,8.62478 -34.75232,7.4642 -2.01152,-1.15903 -2.99898,-4.19556 -12.19247,-37.49384 -8.54505,-30.94935 -9.87867,-36.61268 -9.14502,-38.83915 1.19242,-3.61954 36.69472,-56.0819 39.54847,-58.44141 1.44907,-1.19815 5.61432,-2.70338 11.08076,-4.00436 l 8.75893,-2.08458 -0.88642,-5.68318 c -0.98026,-6.28453 -0.0943,-10.17797 3.14056,-13.80018 1.99697,-2.2362 6.81225,-3.65149 70.32665,-20.67013 75.92525,-20.3441 71.00958,-19.47581 77.14581,-13.62679 2.58226,2.46146 3.2715,4.68023 14.70875,47.35108 13.24662,49.43707 13.20646,49.14038 8.10711,54.45221 -2.44464,2.54642 -4.80232,3.32826 -35.71503,11.84353 -18.20375,5.01444 -33.41766,9.45689 -33.80871,9.87212 -0.40548,0.43055 -0.0305,1.69803 0.87312,2.94944 2.99188,4.14588 3.02259,7.61534 0.18287,20.66283 -3.18014,14.61108 -4.46874,17.79905 -8.4574,20.9242 -4.19147,3.28398 -7.70922,3.78939 -13.58115,1.95123 z m 10.0303,-7.97536 c 2.56556,-3.42809 7.21509,-25.57523 6.18007,-29.43797 -0.94451,-3.52497 -5.09115,-5.94033 -8.58905,-5.00307 -1.51612,0.40624 -3.25242,2.01572 -4.32005,4.00456 -2.26257,4.21461 -6.54044,25.00479 -5.75121,27.95023 0.8072,3.01253 4.13404,5.63282 6.90068,5.43527 1.25223,-0.0894 2.55993,-0.17502 2.90619,-0.19026 0.34615,-0.0152 1.54914,-1.25665 2.67337,-2.75876 z m -23.17905,4.6896 c 2.48276,-2.95973 6.90568,-25.19569 5.81861,-29.2527 -1.71143,-6.38713 -9.58602,-7.10103 -12.76498,-1.15725 -1.89276,3.53887 -6.48933,25.89197 -5.83015,28.35205 0.69671,2.60017 6.02849,5.5001 8.76457,4.76697 1.23407,-0.33067 3.03946,-1.54976 4.01195,-2.70907 z m -42.82609,-1.37926 c 7.67884,-6.30986 30.90519,-40.48709 35.50918,-52.25124 3.34919,-8.55784 4.41615,-18.09267 2.20022,-19.6622 -3.21326,-2.27597 -16.96885,5.96343 -32.26468,19.3261 -5.05892,4.41956 -9.80553,8.19834 -10.54794,8.39727 -0.74241,0.19893 -2.70263,-0.41935 -4.35603,-1.37394 l -3.00625,-1.73561 -6.8187,-25.44775 c -4.95835,-18.5048 -7.21969,-25.67926 -8.2884,-26.29628 -2.60983,-1.50685 -11.17473,1.46451 -13.65433,4.737 -6.6979,8.83951 -31.30273,46.01743 -32.15145,48.58099 -0.89456,2.70199 -0.17639,6.08503 6.91213,32.5579 4.35355,16.24769 8.27785,29.75474 8.72696,30.014 0.4491,0.25927 12.80352,-2.75073 27.45426,-6.68889 24.32522,-6.53873 26.95439,-7.4205 30.28503,-10.15735 z m 72.37326,-55.6607 c 1.88283,-6.31414 4.48201,-9.18483 10.67286,-11.78781 6.46653,-2.7189 6.60601,-4.40723 0.67416,-8.1617 -5.29652,-3.35233 -6.13533,-4.56758 -10.36846,-15.02155 -6.78763,-16.76248 -3.43629,-27.72056 10.04861,-32.85615 6.84306,-2.6061 13.23361,-2.34337 18.61819,0.76539 7.29322,4.2107 11.13257,13.06526 11.89552,27.43379 0.30091,5.66633 -0.13113,7.99452 -2.15069,11.5907 -3.47393,6.18593 -2.39578,7.85896 4.76522,7.39455 7.28974,-0.47275 10.66354,0.67648 14.8812,5.06893 3.99597,4.16165 7.21159,4.31214 8.63462,0.40413 0.83666,-2.29753 -0.41618,-7.72199 -10.32062,-44.68585 -9.78393,-36.51412 -11.54743,-42.30122 -13.35174,-43.81475 l -2.07889,-1.74388 -65.62819,17.58502 c -64.34036,17.23995 -65.65605,17.63307 -67.04254,20.03455 -1.3512,2.3404 -1.06912,3.73739 6.33508,31.37025 4.26435,15.91478 8.20122,29.05648 8.75414,29.22254 0.55259,0.16599 3.10361,-1.38917 5.66881,-3.45589 2.5652,-2.06672 9.35591,-6.74461 15.09035,-10.39527 15.68387,-9.98473 21.84135,-11.04507 29.42348,-5.06684 5.8384,4.60344 7.00718,14.95102 3.18315,28.18334 -1.19419,4.13225 -2.04838,7.97165 -1.89823,8.53202 0.17563,0.65547 4.23783,-0.0436 11.39012,-1.96 l 11.11713,-2.97883 z m -72.16625,-26.06799 c -0.83797,-0.26203 -1.58718,-1.3353 -1.66502,-2.38502 -0.19185,-2.58989 8.33891,-5.70159 9.86628,-3.59885 2.2168,3.05182 -3.72149,7.38456 -8.20126,5.98387 z m 14.67395,-4.4564 c -1.86815,-0.72366 -2.06749,-1.13725 -1.32578,-2.75059 1.19676,-2.60304 13.20164,-5.90643 15.51355,-4.26887 1.26909,0.89889 1.42608,1.48478 0.77646,2.89778 -1.0745,2.33724 -11.88441,5.31469 -14.96423,4.12168 z m -17.91565,-5.82236 c -1.52859,-0.88249 -1.74497,-3.8035 -0.35649,-4.81204 2.13151,-1.54826 57.53599,-16.12458 59.25103,-15.5883 0.83806,0.262 1.58534,1.33578 1.66087,2.38613 0.13026,1.81332 -1.37378,2.3284 -29.79232,10.20262 -16.4612,4.56109 -30.30455,8.07629 -30.76309,7.81159 z m 129.21607,25.08968 c -0.65883,-2.45877 -5.07828,-3.39287 -11.91676,-2.51877 -7.28663,0.93138 -9.61183,-0.55296 -11.41643,-7.2878 -1.36421,-5.09131 -1.29817,-5.43639 1.68621,-8.80905 4.05119,-4.57832 4.37639,-7.91337 1.77823,-18.23693 -2.41453,-9.59379 -4.82189,-12.85448 -10.70002,-14.49245 -4.43945,-1.2371 -11.72132,0.67838 -14.89785,3.91888 -4.50048,4.59112 -4.87616,8.36334 -1.88565,18.93564 2.97862,10.53023 4.42509,12.43768 10.9086,14.38495 3.71137,1.11471 4.09026,1.54465 5.28288,5.99556 1.71858,6.41382 -0.10382,9.66667 -6.94516,12.39668 -5.82094,2.32285 -8.98209,5.43611 -8.25916,8.13409 0.49547,1.84912 1.24568,1.71291 23.69389,-4.30207 22.43768,-6.01216 23.16581,-6.27289 22.67123,-8.1187 z"
         style="fill:#ffffff" />
      <rect
         style="fill:none;fill-opacity:0.98989898;stroke:#ff0000;stroke-width:15;stroke-miterlimit:4;stroke-dasharray:none;stroke-opacity:1"
         id="rect856"
         width="309.26971"
         height="309.26971"
         x="-898.11353"
         y="643.97974"
         ry="154.63486" />
      <path
         style="fill:none;stroke:#ff0000;stroke-width:15;stroke-linecap:butt;stroke-linejoin:miter;stroke-miterlimit:4;stroke-dasharray:none;stroke-opacity:1"
         d="m -838.93865,681.8677 214.82753,214.82753"
         id="path858"
         inkscape:connector-curvature="0" />
    </g>
    <rect
       y="993.35767"
       x="-1004.0312"
       height="93.781769"
       width="521.10522"
       id="rect865"
       style="fill:#ff0000;fill-opacity:0.98989898;stroke:#ff0000;stroke-width:11.81159592;stroke-miterlimit:4;stroke-dasharray:none;stroke-opacity:1" />
    <text
       id="text869"
       y="1064.9276"
       x="-995.54968"
       style="font-style:normal;font-variant:normal;font-weight:normal;font-stretch:normal;font-size:67.06260681px;line-height:1.25;font-family:'DK Cool Crayon';-inkscape-font-specification:'DK Cool Crayon';letter-spacing:0px;word-spacing:0px;fill:#000000;fill-opacity:1;stroke:none;stroke-width:0.34928441"
       xml:space="preserve"><tspan
         style="fill:#ffffff;stroke-width:0.34928441"
         y="1064.9276"
         x="-995.54968"
         id="tspan867"
         sodipodi:role="line">TANIMSIZ KART</tspan></text>
  </g>
</svg>
